<?xml version="1.0" encoding="UTF-8" standalone="no"?>
<svg
   width="133"
   height="42"
   viewBox="0 0 133 42"
   fill="none"
   version="1.1"
   id="svg31"
   sodipodi:docname="logo-testmu.svg"
   inkscape:version="1.4.3 (0d15f75, 2025-12-25)"
   xmlns:inkscape="http://www.inkscape.org/namespaces/inkscape"
   xmlns:sodipodi="http://sodipodi.sourceforge.net/DTD/sodipodi-0.dtd"
   xmlns="http://www.w3.org/2000/svg"
   xmlns:svg="http://www.w3.org/2000/svg">
  <defs
     id="defs31" />
  <sodipodi:namedview
     id="namedview31"
     pagecolor="#ffffff"
     bordercolor="#000000"
     borderopacity="0.25"
     inkscape:showpageshadow="2"
     inkscape:pageopacity="0.0"
     inkscape:pagecheckerboard="0"
     inkscape:deskcolor="#d1d1d1"
     inkscape:zoom="2.7782622"
     inkscape:cx="36.533629"
     inkscape:cy="29.514853"
     inkscape:window-width="1280"
     inkscape:window-height="747"
     inkscape:window-x="0"
     inkscape:window-y="25"
     inkscape:window-maximized="1"
     inkscape:current-layer="svg31" />
  <path
     d="m 19.815911,10.920188 h -5.344663 v 13.755377 h 5.344663 z"
     fill="#121212"
     style="fill:#121212;fill-opacity:1;stroke-width:1.02065"
     id="path1" />
  <path
     d="M 7.3449639,10.920188 H 2.0003605 v 7.82634 l 5.3446034,5.929037 z"
     fill="#121212"
     style="fill:#121212;fill-opacity:1;stroke-width:1.02065"
     id="path2" />
  <path
     d="M 7.3449639,24.675565 H 2.0003605 V 32.2648 h 5.3446034 z"
     fill="#121212"
     style="fill:#121212;fill-opacity:1;stroke-width:1.02065"
     id="path3" />
  <path
     d="M 14.471939,24.675565 H 7.3457551 L 11.5769,30.367412 h 2.895039 z"
     fill="#121212"
     style="fill:#121212;fill-opacity:1;stroke-width:1.02065"
     id="path4" />
  <path
     d="M 25.131893,11.366407 H 38.431538 V 13.46088 H 32.851093 V 29.692994 H 30.712339 V 13.46088 h -5.580446 z"
     fill="#121212"
     style="fill:#121212;fill-opacity:1;stroke-width:1.02065"
     id="path5" />
  <path
     d="m 37.767214,23.016852 c 0,-1.361371 0.245771,-2.556945 0.737512,-3.586731 0.50806,-1.029786 1.212737,-1.823932 2.114129,-2.382457 0.901393,-0.575979 1.933929,-0.863978 3.097511,-0.863978 1.147263,0 2.163382,0.253083 3.048357,0.75925 0.885074,0.506166 1.581542,1.239232 2.089601,2.199196 0.50806,0.959964 0.778458,2.085746 0.811293,3.377358 0,0.192014 -0.01642,0.497362 -0.04915,0.916358 h -9.73512 v 0.183167 c 0.03284,1.309128 0.409751,2.356304 1.130845,3.141738 0.721193,0.785435 1.663532,1.178205 2.827114,1.178205 0.901393,0 1.663531,-0.235725 2.286316,-0.706965 0.639105,-0.488724 1.065274,-1.160615 1.278309,-2.015882 h 2.040446 c -0.24587,1.361371 -0.860448,2.478485 -1.843829,3.351132 -0.983284,0.855267 -2.18791,1.282901 -3.613681,1.282901 -1.245571,0 -2.335471,-0.279331 -3.269601,-0.837783 -0.934227,-0.576042 -1.663531,-1.378856 -2.188008,-2.408652 -0.50806,-1.047282 -0.76204,-2.242866 -0.76204,-3.586857 z m 9.808802,-1.361371 c -0.09831,-1.134494 -0.49985,-2.015914 -1.204626,-2.644252 -0.688358,-0.628347 -1.565123,-0.942511 -2.630397,-0.942511 -0.950547,0 -1.786368,0.331617 -2.507561,0.99487 -0.721094,0.663254 -1.130845,1.527222 -1.229155,2.591893 z"
     fill="#121212"
     style="fill:#121212;fill-opacity:1;stroke-width:1.02065"
     id="path6" />
  <path
     d="m 53.491245,25.294686 c 0.03274,0.802814 0.360498,1.457325 0.983283,1.963534 0.639204,0.506103 1.458607,0.759208 2.458407,0.759208 0.884975,0 1.59786,-0.183272 2.138756,-0.549815 0.557213,-0.383922 0.83582,-0.881389 0.83582,-1.492294 0,-0.523588 -0.131144,-0.924995 -0.393334,-1.204326 -0.262188,-0.279226 -0.606368,-0.47124 -1.032536,-0.575937 C 58.071989,24.09036 57.48194,23.985558 56.711691,23.880861 55.63,23.741196 54.744927,23.557924 54.056668,23.331047 c -0.688359,-0.226878 -1.245572,-0.584679 -1.67174,-1.073403 -0.42607,-0.506104 -0.639106,-1.195584 -0.639106,-2.068273 0,-0.785435 0.204826,-1.483584 0.614578,-2.094479 0.426069,-0.610884 0.999701,-1.082134 1.720795,-1.413761 0.721095,-0.34908 1.532388,-0.52362 2.43378,-0.52362 1.475025,0 2.671442,0.366533 3.589153,1.099598 0.934229,0.733066 1.450497,1.780295 1.548805,3.141708 h -2.01582 c -0.08199,-0.69816 -0.401541,-1.274138 -0.958756,-1.727946 -0.557213,-0.453797 -1.25378,-0.680696 -2.089601,-0.680696 -0.852238,0 -1.540596,0.191993 -2.065074,0.575978 -0.524378,0.366533 -0.786665,0.855236 -0.786665,1.466131 0,0.453797 0.122935,0.802877 0.368805,1.047229 0.245771,0.244362 0.557214,0.410181 0.934128,0.497393 0.393334,0.08732 0.983383,0.183271 1.77005,0.288073 1.09801,0.13956 1.999403,0.331574 2.704177,0.575936 0.721095,0.244362 1.294727,0.637027 1.720796,1.1781 0.442586,0.541072 0.663831,1.274159 0.663831,2.199259 0,0.802814 -0.221245,1.509779 -0.663831,2.120684 -0.442487,0.6108 -1.040647,1.082145 -1.794576,1.413719 -0.75383,0.331575 -1.589751,0.497467 -2.507462,0.497467 -1.638905,0 -2.958258,-0.401512 -3.957958,-1.204326 -0.983383,-0.802919 -1.483234,-1.919928 -1.499652,-3.351132 z"
     fill="#121212"
     style="fill:#121212;fill-opacity:1;stroke-width:1.02065"
     id="path7" />
  <path
     d="m 65.021436,18.304338 h -2.261691 v -1.963565 h 2.261691 v -3.74386 h 2.015821 v 3.74386 h 3.171291 v 1.963565 h -3.171291 v 7.880479 c 0,0.558452 0.09841,0.959964 0.295024,1.204326 0.213034,0.226878 0.573631,0.340317 1.081691,0.340317 h 2.187909 v 1.963534 h -2.310845 c -1.18,0 -2.024028,-0.279226 -2.532088,-0.837783 -0.491642,-0.558452 -0.737512,-1.439946 -0.737512,-2.644272 z"
     fill="#121212"
     style="fill:#121212;fill-opacity:1;stroke-width:1.02065"
     id="path8" />
  <path
     d="m 72.330984,11.366407 h 2.704179 l 6.096714,15.211075 6.022932,-15.211075 h 2.655025 v 18.326587 h -2.089602 v -14.45182 l -5.70338,14.45182 h -1.892886 l -5.70338,-14.45182 v 14.45182 h -2.089602 z"
     fill="#121212"
     style="fill:#121212;fill-opacity:1;stroke-width:1.02065"
     id="path9" />
  <path
     d="m 103.64256,16.340773 v 13.352221 h -1.74562 l -0.27001,-1.780263 c -0.95084,1.291539 -2.28651,1.937413 -4.007399,1.937413 -1.491443,0 -2.687762,-0.488724 -3.589155,-1.466173 -0.901392,-0.977449 -1.352089,-2.513349 -1.352089,-4.607806 v -7.435392 h 2.015821 v 7.304468 c 0,1.378856 0.278607,2.434774 0.835821,3.167861 0.573631,0.715602 1.384924,1.073403 2.433779,1.073403 1.147259,0 2.040452,-0.436271 2.679562,-1.309023 0.65532,-0.872647 0.98366,-2.059594 0.98366,-3.56063 v -6.676079 z"
     fill="#121212"
     style="fill:#121212;fill-opacity:1;stroke-width:1.02065"
     id="path10" />
  <path
     d="m 111.7179,29.692994 6.56413,-18.326587 h 2.5319 l 6.53939,18.326587 h -2.28661 l -1.81881,-4.948123 h -7.49775 l -1.81981,4.948123 z m 4.67114,-7.016459 h 6.21995 l -3.12233,-8.822948 z"
     fill="#121212"
     style="fill:#121212;fill-opacity:1;stroke-width:1.02065"
     id="path11" />
  <path
     d="m 129.3007,11.366407 h 2.13827 v 18.326587 h -2.13827 z"
     fill="#121212"
     style="fill:#121212;fill-opacity:1;stroke-width:1.02065"
     id="path12" />
  <path
     d="M 25.131893,11.366407 H 38.431538 V 13.46088 H 32.851093 V 29.692994 H 30.712339 V 13.46088 h -5.580446 z"
     stroke="#121212"
     style="stroke:#121212;stroke-opacity:1"
     stroke-width="0.479966"
     id="path13" />
  <path
     d="m 37.767214,23.016852 c 0,-1.361371 0.245771,-2.556945 0.737512,-3.586731 0.50806,-1.029786 1.212737,-1.823932 2.114129,-2.382457 0.901393,-0.575979 1.933929,-0.863978 3.097511,-0.863978 1.147263,0 2.163382,0.253083 3.048357,0.75925 0.885074,0.506166 1.581542,1.239232 2.089601,2.199196 0.50806,0.959964 0.778458,2.085746 0.811293,3.377358 0,0.192014 -0.01642,0.497362 -0.04915,0.916358 h -9.73512 v 0.183167 c 0.03284,1.309128 0.409751,2.356304 1.130845,3.141738 0.721193,0.785435 1.663532,1.178205 2.827114,1.178205 0.901393,0 1.663531,-0.235725 2.286316,-0.706965 0.639105,-0.488724 1.065274,-1.160615 1.278309,-2.015882 h 2.040446 c -0.24587,1.361371 -0.860448,2.478485 -1.843829,3.351132 -0.983284,0.855267 -2.18791,1.282901 -3.613681,1.282901 -1.245571,0 -2.335471,-0.279331 -3.269601,-0.837783 -0.934227,-0.576042 -1.663531,-1.378856 -2.188008,-2.408652 -0.50806,-1.047282 -0.76204,-2.242866 -0.76204,-3.586857 z m 9.808802,-1.361371 c -0.09831,-1.134494 -0.49985,-2.015914 -1.204626,-2.644252 -0.688358,-0.628347 -1.565123,-0.942511 -2.630397,-0.942511 -0.950547,0 -1.786368,0.331617 -2.507561,0.99487 -0.721094,0.663254 -1.130845,1.527222 -1.229155,2.591893 z"
     stroke="#121212"
     style="stroke:#121212;stroke-opacity:1"
     stroke-width="0.479966"
     id="path14" />
  <path
     d="m 53.491245,25.294686 c 0.03274,0.802814 0.360498,1.457325 0.983283,1.963534 0.639204,0.506103 1.458607,0.759208 2.458407,0.759208 0.884975,0 1.59786,-0.183272 2.138756,-0.549815 0.557213,-0.383922 0.83582,-0.881389 0.83582,-1.492294 0,-0.523588 -0.131144,-0.924995 -0.393334,-1.204326 -0.262188,-0.279226 -0.606368,-0.47124 -1.032536,-0.575937 C 58.071989,24.09036 57.48194,23.985558 56.711691,23.880861 55.63,23.741196 54.744927,23.557924 54.056668,23.331047 c -0.688359,-0.226878 -1.245572,-0.584679 -1.67174,-1.073403 -0.42607,-0.506104 -0.639106,-1.195584 -0.639106,-2.068273 0,-0.785435 0.204826,-1.483584 0.614578,-2.094479 0.426069,-0.610884 0.999701,-1.082134 1.720795,-1.413761 0.721095,-0.34908 1.532388,-0.52362 2.43378,-0.52362 1.475025,0 2.671442,0.366533 3.589153,1.099598 0.934229,0.733066 1.450497,1.780295 1.548805,3.141708 h -2.01582 c -0.08199,-0.69816 -0.401541,-1.274138 -0.958756,-1.727946 -0.557213,-0.453797 -1.25378,-0.680696 -2.089601,-0.680696 -0.852238,0 -1.540596,0.191993 -2.065074,0.575978 -0.524378,0.366533 -0.786665,0.855236 -0.786665,1.466131 0,0.453797 0.122935,0.802877 0.368805,1.047229 0.245771,0.244362 0.557214,0.410181 0.934128,0.497393 0.393334,0.08732 0.983383,0.183271 1.77005,0.288073 1.09801,0.13956 1.999403,0.331574 2.704177,0.575936 0.721095,0.244362 1.294727,0.637027 1.720796,1.1781 0.442586,0.541072 0.663831,1.274159 0.663831,2.199259 0,0.802814 -0.221245,1.509779 -0.663831,2.120684 -0.442487,0.6108 -1.040647,1.082145 -1.794576,1.413719 -0.75383,0.331575 -1.589751,0.497467 -2.507462,0.497467 -1.638905,0 -2.958258,-0.401512 -3.957958,-1.204326 -0.983383,-0.802919 -1.483234,-1.919928 -1.499652,-3.351132 z"
     stroke="#121212"
     style="stroke:#121212;stroke-opacity:1"
     stroke-width="0.479966"
     id="path15" />
  <path
     d="m 65.021436,18.304338 h -2.261691 v -1.963565 h 2.261691 v -3.74386 h 2.015821 v 3.74386 h 3.171291 v 1.963565 h -3.171291 v 7.880479 c 0,0.558452 0.09841,0.959964 0.295024,1.204326 0.213034,0.226878 0.573631,0.340317 1.081691,0.340317 h 2.187909 v 1.963534 h -2.310845 c -1.18,0 -2.024028,-0.279226 -2.532088,-0.837783 -0.491642,-0.558452 -0.737512,-1.439946 -0.737512,-2.644272 z"
     stroke="#121212"
     style="stroke:#121212;stroke-opacity:1"
     stroke-width="0.479966"
     id="path16" />
  <path
     d="m 72.330984,11.366407 h 2.704179 l 6.096714,15.211075 6.022932,-15.211075 h 2.655025 v 18.326587 h -2.089602 v -14.45182 l -5.70338,14.45182 h -1.892886 l -5.70338,-14.45182 v 14.45182 h -2.089602 z"
     stroke="#121212"
     style="stroke:#121212;stroke-opacity:1"
     stroke-width="0.479966"
     id="path17" />
  <path
     d="m 103.64256,16.340773 v 13.352221 h -1.74562 l -0.27001,-1.780263 c -0.95084,1.291539 -2.28651,1.937413 -4.007399,1.937413 -1.491443,0 -2.687762,-0.488724 -3.589155,-1.466173 -0.901392,-0.977449 -1.352089,-2.513349 -1.352089,-4.607806 v -7.435392 h 2.015821 v 7.304468 c 0,1.378856 0.278607,2.434774 0.835821,3.167861 0.573631,0.715602 1.384924,1.073403 2.433779,1.073403 1.147259,0 2.040452,-0.436271 2.679562,-1.309023 0.65532,-0.872647 0.98366,-2.059594 0.98366,-3.56063 v -6.676079 z"
     stroke="#121212"
     style="stroke:#121212;stroke-opacity:1"
     stroke-width="0.479966"
     id="path18" />
  <path
     d="m 111.7179,29.692994 6.56413,-18.326587 h 2.5319 l 6.53939,18.326587 h -2.28661 l -1.81881,-4.948123 h -7.49775 l -1.81981,4.948123 z m 4.67114,-7.016459 h 6.21995 l -3.12233,-8.822948 z"
     stroke="#121212"
     style="stroke:#121212;stroke-opacity:1"
     stroke-width="0.479966"
     id="path19" />
  <path
     d="m 129.3007,11.366407 h 2.13827 v 18.326587 h -2.13827 z"
     stroke="#121212"
     style="stroke:#121212;stroke-opacity:1"
     stroke-width="0.479966"
     id="path20" />
</svg>
